<?xml version="1.0" standalone="no"?><!DOCTYPE svg PUBLIC "-//W3C//DTD SVG 1.1//EN" "http://www.w3.org/Graphics/SVG/1.1/DTD/svg11.dtd"><svg t="1750060553764" class="icon" viewBox="0 0 1024 1024" version="1.1" xmlns="http://www.w3.org/2000/svg" p-id="6526" xmlns:xlink="http://www.w3.org/1999/xlink" width="48" height="48"><path d="M462.272 163.904l316.736 316.8-361.984 361.984-316.8-316.736L462.272 163.904M417.024 118.656 54.912 480.704c-25.088 25.024-25.088 65.472 0 90.496l316.8 316.736c25.024 25.088 65.408 25.088 90.496 0l361.984-361.984c25.024-25.024 25.024-65.472 0-90.496L507.52 118.656C482.496 93.632 441.984 93.632 417.024 118.656L417.024 118.656zM54.912 571.2l316.8 316.736c25.024 25.088 65.408 25.088 90.496 0l361.984-361.984c12.48-12.48 18.816-28.864 18.752-45.248L54.912 480.704C29.888 505.664 29.888 546.176 54.912 571.2zM145.408 73.344c-12.48 12.544-12.48 32.768 0 45.248L439.616 412.8c12.48 12.48 32.768 12.48 45.248 0l0 0c12.48-12.48 12.48-32.768 0-45.248L190.656 73.344C178.176 60.864 157.952 60.864 145.408 73.344L145.408 73.344zM869.696 525.312c0 0-117.696 181.696-128 256-17.6 126.784 64 141.696 128 141.696s140.48-14.272 128-141.696C990.976 713.024 869.696 525.312 869.696 525.312z" fill="#010101" p-id="6527"></path></svg>